<?xml version="1.0" standalone="no"?>
<!DOCTYPE svg PUBLIC "-//W3C//DTD SVG 20010904//EN"
 "http://www.w3.org/TR/2001/REC-SVG-20010904/DTD/svg10.dtd">
<svg version="1.0" xmlns="http://www.w3.org/2000/svg"
 width="800.000000pt" height="800.000000pt" viewBox="0 0 800.000000 800.000000"
 preserveAspectRatio="xMidYMid meet">
<metadata>
Created by potrace 1.11, written by Peter Selinger 2001-2013
</metadata>
<g transform="translate(0.000000,800.000000) scale(0.100000,-0.100000)"
fill="#000000" stroke="none">
<path d="M4042 7890 c-6 -14 -71 -175 -145 -357 l-135 -333 289 0 c159 0 289
3 289 6 0 8 -269 673 -280 694 -7 12 -11 10 -18 -10z"/>
<path d="M2919 7343 c-14 -208 -24 -380 -22 -382 4 -6 525 159 536 169 6 5
-476 590 -487 590 -1 0 -14 -170 -27 -377z"/>
<path d="M4898 7429 c-135 -162 -245 -295 -243 -297 7 -7 539 -171 543 -167 5
5 -36 631 -46 709 l-7 49 -247 -294z"/>
<path d="M2027 6942 c40 -158 83 -326 96 -374 l22 -88 233 166 c190 135 231
169 220 179 -10 9 -557 353 -634 398 -6 3 22 -123 63 -281z"/>
<path d="M5870 7067 c-140 -89 -286 -181 -323 -205 l-68 -43 158 -111 c87 -61
193 -135 236 -166 43 -30 79 -53 81 -51 1 2 42 164 91 359 49 195 90 361 93
368 2 6 0 12 -4 11 -5 0 -124 -73 -264 -162z"/>
<path d="M6547 6372 c-249 -66 -366 -101 -363 -109 8 -19 328 -443 335 -443 3
0 94 140 201 311 232 371 213 339 203 338 -4 0 -173 -44 -376 -97z"/>
<path d="M1173 6447 c12 -29 399 -632 406 -632 9 0 344 445 339 450 -2 2 -95
26 -208 55 -113 28 -281 71 -373 95 -103 27 -167 39 -164 32z"/>
<path d="M3415 6124 c-191 -40 -326 -133 -427 -294 -86 -138 -122 -306 -98
-464 59 -389 442 -918 928 -1284 129 -96 243 -155 302 -156 110 -2 371 182
630 443 403 406 627 825 607 1137 -35 530 -596 805 -1000 489 -31 -25 -81 -78
-112 -118 -95 -127 -154 -130 -240 -10 -87 121 -212 208 -350 243 -72 18 -186
25 -240 14z"/>
<path d="M1590 5656 c-56 -41 -135 -127 -184 -200 -84 -127 -137 -290 -156
-484 -39 -390 140 -885 454 -1260 234 -278 541 -494 848 -597 164 -54 254 -69
420 -70 82 0 148 -2 147 -5 0 -3 -28 -25 -62 -49 l-61 -44 -111 6 c-470 23
-1005 294 -1397 707 -322 337 -535 796 -539 1159 -1 60 -4 81 -14 81 -7 0 -34
-28 -60 -62 -177 -236 -211 -544 -99 -888 47 -141 97 -243 192 -386 274 -411
713 -716 1176 -816 81 -17 135 -22 271 -22 186 -1 280 16 400 69 32 14 59 24
60 23 1 -2 -27 -47 -61 -100 -72 -110 -70 -109 -224 -128 -300 -37 -678 33
-995 184 -482 230 -830 591 -970 1008 l-33 101 -31 -60 c-51 -102 -64 -171
-58 -313 4 -100 10 -142 32 -210 150 -465 635 -857 1215 -981 88 -19 136 -23
290 -23 168 1 194 3 285 27 123 33 263 101 333 162 28 26 52 42 52 36 0 -5 -4
-12 -9 -15 -5 -3 -14 -26 -20 -51 -10 -42 -17 -48 -89 -90 -152 -89 -341 -150
-545 -175 -155 -20 -432 -8 -587 25 -248 52 -490 153 -661 274 -82 58 -213
184 -272 261 l-27 35 0 -90 c0 -105 16 -174 64 -270 127 -256 442 -461 841
-546 96 -21 136 -24 315 -24 226 1 301 13 471 74 163 60 320 173 390 281 18
28 34 48 36 46 2 -2 -2 -36 -9 -77 -10 -64 -17 -79 -52 -118 -137 -149 -387
-272 -671 -328 -136 -27 -444 -24 -581 5 -195 42 -351 107 -476 200 -33 24
-62 41 -66 38 -12 -12 21 -117 54 -172 125 -209 377 -339 722 -374 118 -11
334 10 459 45 108 31 256 101 339 160 82 59 165 152 206 231 18 35 35 64 38
64 3 0 6 -28 8 -62 2 -57 -1 -69 -35 -127 -220 -370 -805 -575 -1232 -432 -47
16 -87 28 -89 26 -9 -8 36 -74 82 -120 137 -137 393 -184 662 -122 286 66 475
201 581 414 48 96 63 104 63 32 0 -23 -15 -66 -39 -115 -125 -248 -401 -429
-706 -462 -73 -8 -189 -1 -237 14 -17 5 -18 3 -10 -13 32 -59 132 -115 236
-134 210 -36 466 52 632 218 84 83 144 192 152 273 2 27 8 50 13 50 11 0 29
-68 29 -112 0 -93 -93 -262 -196 -357 -95 -87 -183 -127 -369 -166 l-30 -7 23
-18 c32 -26 126 -43 197 -36 122 12 300 128 373 243 31 49 56 118 67 187 l6
38 25 -33 c31 -43 39 -90 25 -151 -40 -174 -213 -343 -372 -364 -27 -4 -52
-10 -54 -14 -8 -12 56 -38 110 -45 56 -8 147 17 222 62 94 55 166 169 180 285
3 27 7 48 9 48 11 0 104 -109 104 -122 0 -10 -9 -40 -19 -68 -45 -117 -150
-211 -276 -245 l-67 -18 29 -16 c48 -26 148 -21 215 12 102 50 188 171 188
263 0 13 3 24 8 24 14 0 112 -71 112 -81 0 -101 -118 -228 -212 -229 -16 0
-28 -4 -28 -8 0 -9 66 -32 91 -32 37 0 89 23 127 56 51 43 81 125 63 174 -12
35 -9 35 50 14 60 -21 173 -44 216 -44 l35 0 -77 83 c-283 303 -435 725 -435
1205 1 465 156 889 435 1189 86 93 95 79 -73 113 -218 45 -494 160 -692 290
-533 350 -931 923 -1055 1520 -36 172 -44 400 -21 559 9 62 16 115 14 116 -2
2 -23 -11 -48 -29z"/>
<path d="M6486 5528 c16 -130 9 -482 -10 -593 -93 -532 -342 -1028 -690 -1378
-232 -234 -471 -376 -752 -447 l-91 -23 49 -61 c164 -202 290 -518 345 -868
22 -141 25 -534 5 -673 -47 -319 -144 -591 -286 -804 -35 -53 -73 -105 -85
-115 -12 -11 -21 -23 -21 -28 0 -23 122 2 224 47 17 7 18 5 13 -26 -19 -122
83 -247 181 -223 45 11 44 23 -3 40 -20 7 -48 23 -62 36 -33 30 -69 103 -77
154 -6 40 -4 43 39 79 49 39 49 39 59 -33 14 -95 77 -186 158 -226 61 -30 98
-32 153 -8 l40 18 -45 12 c-100 25 -190 112 -229 222 -35 99 -35 101 12 162
l43 56 13 -72 c15 -93 57 -180 112 -233 48 -45 139 -93 179 -93 38 0 96 19
110 35 9 11 4 16 -32 25 -134 37 -244 157 -292 319 -22 74 -20 137 5 191 l22
45 13 -79 c20 -110 63 -194 138 -272 110 -112 232 -150 332 -105 61 28 61 37
1 51 -154 36 -283 142 -356 292 -65 135 -82 223 -59 303 l11 40 13 -65 c24
-122 69 -212 156 -305 53 -58 162 -131 235 -157 73 -26 185 -34 252 -18 63 15
134 61 161 104 11 19 20 35 20 38 0 3 -28 -1 -62 -9 -260 -56 -599 168 -713
471 -24 63 -34 166 -17 166 4 0 18 -30 30 -67 85 -245 270 -401 544 -457 97
-20 157 -20 233 -1 131 34 238 112 285 210 25 52 22 63 -12 42 -12 -9 -52 -26
-88 -38 -94 -33 -292 -33 -400 0 -226 69 -402 202 -515 391 -48 81 -50 86 -53
169 l-3 86 29 -66 c118 -270 399 -440 732 -441 344 -2 637 201 695 480 8 37
12 68 10 70 -2 3 -31 -20 -64 -49 -101 -92 -207 -147 -369 -191 -64 -18 -105
-22 -247 -22 -146 -1 -181 2 -252 22 -176 48 -325 128 -434 234 -89 86 -107
115 -119 197 -7 40 -10 75 -7 77 2 3 19 -21 37 -53 18 -32 65 -90 106 -130 59
-58 92 -81 176 -122 57 -27 130 -57 163 -66 82 -23 305 -31 403 -15 162 26
346 102 469 194 80 60 199 188 242 259 67 113 111 262 111 377 0 84 -8 87 -51
23 -138 -210 -350 -373 -602 -462 -361 -127 -739 -90 -1017 99 -68 46 -86 66
-93 105 -3 17 -9 39 -13 50 -4 11 22 -8 59 -42 188 -174 482 -220 788 -122
104 33 278 124 369 193 112 84 272 251 343 358 149 223 230 491 213 703 -6 82
-36 208 -61 254 -15 30 -16 29 -40 -67 -65 -257 -227 -535 -435 -741 -213
-211 -454 -354 -720 -424 -105 -27 -130 -30 -280 -31 -133 -1 -176 3 -223 17
-54 17 -60 22 -79 64 -11 25 -33 68 -49 95 -16 27 -29 51 -29 54 0 2 27 -10
61 -27 215 -108 500 -88 776 54 287 147 558 432 725 762 174 342 227 728 142
1021 -26 92 -92 230 -123 258 -16 15 -18 8 -29 -127 -53 -622 -412 -1228 -932
-1574 -205 -137 -457 -227 -653 -235 l-67 -3 -50 50 -50 50 133 1 c112 1 145
5 220 28 346 104 683 410 904 821 340 632 344 1356 10 1731 -27 30 -53 54 -59
54 -7 0 -7 -24 -2 -72z"/>
<path d="M4067 2081 c-97 -15 -179 -30 -182 -33 -7 -7 -295 -776 -295 -788 0
-13 575 -960 633 -1042 22 -32 43 -58 46 -58 3 0 42 62 86 138 43 75 114 191
156 257 41 66 155 251 253 411 l177 292 -146 388 c-81 214 -153 394 -160 400
-11 9 -178 36 -360 59 -16 2 -110 -9 -208 -24z m-8 -285 l43 -44 -84 14 c-45
8 -89 14 -95 14 -19 0 -16 17 7 40 35 35 80 26 129 -24z m558 38 c20 -5 41
-39 31 -49 -6 -7 -178 -32 -178 -26 0 3 17 22 37 43 37 38 61 45 110 32z
m-269 -135 c45 -39 82 -74 82 -77 1 -14 -165 -552 -170 -552 -3 0 -43 124 -89
276 -81 268 -83 277 -65 294 40 38 149 130 155 130 3 0 42 -32 87 -71z"/>
</g>
</svg>
